<mxfile host="Electron" agent="Mozilla/5.0 (Windows NT 10.0; Win64; x64) AppleWebKit/537.36 (KHTML, like Gecko) draw.io/26.0.9 Chrome/128.0.6613.186 Electron/32.2.5 Safari/537.36" version="26.0.9">
  <diagram name="Страница — 1" id="Ue36vAwXjHxLCUMpt70z">
    <mxGraphModel dx="3187" dy="1858" grid="1" gridSize="10" guides="1" tooltips="1" connect="1" arrows="1" fold="1" page="1" pageScale="1" pageWidth="827" pageHeight="1169" math="0" shadow="0">
      <root>
        <mxCell id="0" />
        <mxCell id="1" parent="0" />
        <mxCell id="77FX7k-zkkTYW5ezyQ91-1" value="" style="edgeStyle=orthogonalEdgeStyle;rounded=0;orthogonalLoop=1;jettySize=auto;html=1;" edge="1" parent="1" source="77FX7k-zkkTYW5ezyQ91-2">
          <mxGeometry relative="1" as="geometry">
            <mxPoint x="240" y="130" as="targetPoint" />
          </mxGeometry>
        </mxCell>
        <mxCell id="77FX7k-zkkTYW5ezyQ91-2" value="Начало" style="ellipse;whiteSpace=wrap;html=1;" vertex="1" parent="1">
          <mxGeometry x="180" y="60" width="120" height="40" as="geometry" />
        </mxCell>
        <mxCell id="77FX7k-zkkTYW5ezyQ91-3" value="" style="edgeStyle=orthogonalEdgeStyle;rounded=0;orthogonalLoop=1;jettySize=auto;html=1;" edge="1" parent="1" source="77FX7k-zkkTYW5ezyQ91-4">
          <mxGeometry relative="1" as="geometry">
            <mxPoint x="240" y="180" as="targetPoint" />
          </mxGeometry>
        </mxCell>
        <mxCell id="77FX7k-zkkTYW5ezyQ91-4" value="int main()" style="shape=process;whiteSpace=wrap;html=1;backgroundOutline=1;" vertex="1" parent="1">
          <mxGeometry x="180" y="130" width="120" height="30" as="geometry" />
        </mxCell>
        <mxCell id="77FX7k-zkkTYW5ezyQ91-5" value="setlocale(LC_ALL, &quot;Russian&quot;);" style="rounded=0;whiteSpace=wrap;html=1;" vertex="1" parent="1">
          <mxGeometry x="180" y="180" width="120" height="30" as="geometry" />
        </mxCell>
        <mxCell id="77FX7k-zkkTYW5ezyQ91-6" value="" style="edgeStyle=orthogonalEdgeStyle;rounded=0;orthogonalLoop=1;jettySize=auto;html=1;" edge="1" parent="1">
          <mxGeometry relative="1" as="geometry">
            <mxPoint x="240" y="210" as="sourcePoint" />
            <mxPoint x="240" y="230" as="targetPoint" />
          </mxGeometry>
        </mxCell>
        <mxCell id="77FX7k-zkkTYW5ezyQ91-7" value="&lt;div&gt;#include &amp;lt;iostream&amp;gt;&lt;/div&gt;&lt;div&gt;using namespace std;&lt;/div&gt;&lt;div&gt;&lt;div&gt;&amp;nbsp;int arr[] = { 12, 11, 13, 5, 6, 7, 1, 3 };&lt;/div&gt;&lt;div&gt;&amp;nbsp;int n = sizeof(arr) / sizeof(arr[0]);&lt;/div&gt;&lt;/div&gt;" style="strokeWidth=2;html=1;shape=mxgraph.flowchart.annotation_2;align=left;labelPosition=right;pointerEvents=1;" vertex="1" parent="1">
          <mxGeometry x="320" y="60" width="50" height="100" as="geometry" />
        </mxCell>
        <mxCell id="77FX7k-zkkTYW5ezyQ91-8" value="" style="endArrow=none;dashed=1;html=1;rounded=0;entryX=-0.04;entryY=0.503;entryDx=0;entryDy=0;entryPerimeter=0;" edge="1" parent="1" target="77FX7k-zkkTYW5ezyQ91-7">
          <mxGeometry width="50" height="50" relative="1" as="geometry">
            <mxPoint x="240" y="110" as="sourcePoint" />
            <mxPoint x="310" y="110" as="targetPoint" />
          </mxGeometry>
        </mxCell>
        <mxCell id="77FX7k-zkkTYW5ezyQ91-9" value="cout &amp;lt;&amp;lt; &quot;Исходный&amp;nbsp;&lt;div&gt;массив: &quot;;&lt;/div&gt;" style="shape=parallelogram;perimeter=parallelogramPerimeter;whiteSpace=wrap;html=1;fixedSize=1;" vertex="1" parent="1">
          <mxGeometry x="160" y="230" width="160" height="30" as="geometry" />
        </mxCell>
        <mxCell id="77FX7k-zkkTYW5ezyQ91-10" value="" style="edgeStyle=orthogonalEdgeStyle;rounded=0;orthogonalLoop=1;jettySize=auto;html=1;" edge="1" parent="1">
          <mxGeometry relative="1" as="geometry">
            <mxPoint x="240" y="280" as="targetPoint" />
            <mxPoint x="240" y="260" as="sourcePoint" />
          </mxGeometry>
        </mxCell>
        <mxCell id="77FX7k-zkkTYW5ezyQ91-11" value="print(arr, n);" style="rounded=0;whiteSpace=wrap;html=1;" vertex="1" parent="1">
          <mxGeometry x="180" y="280" width="120" height="30" as="geometry" />
        </mxCell>
        <mxCell id="77FX7k-zkkTYW5ezyQ91-12" value="" style="edgeStyle=orthogonalEdgeStyle;rounded=0;orthogonalLoop=1;jettySize=auto;html=1;" edge="1" parent="1">
          <mxGeometry relative="1" as="geometry">
            <mxPoint x="240" y="330" as="targetPoint" />
            <mxPoint x="240" y="310" as="sourcePoint" />
          </mxGeometry>
        </mxCell>
        <mxCell id="77FX7k-zkkTYW5ezyQ91-13" value="mergeSort(arr, 0, n - 1);" style="rounded=0;whiteSpace=wrap;html=1;" vertex="1" parent="1">
          <mxGeometry x="180" y="330" width="120" height="30" as="geometry" />
        </mxCell>
        <mxCell id="77FX7k-zkkTYW5ezyQ91-14" value="" style="edgeStyle=orthogonalEdgeStyle;rounded=0;orthogonalLoop=1;jettySize=auto;html=1;" edge="1" parent="1">
          <mxGeometry relative="1" as="geometry">
            <mxPoint x="240" y="360" as="sourcePoint" />
            <mxPoint x="240" y="380" as="targetPoint" />
          </mxGeometry>
        </mxCell>
        <mxCell id="77FX7k-zkkTYW5ezyQ91-15" value="&lt;font style=&quot;font-size: 10px;&quot;&gt;&amp;nbsp;cout &amp;lt;&amp;lt; &quot;Отсортированный массив: &quot;;&lt;/font&gt;" style="shape=parallelogram;perimeter=parallelogramPerimeter;whiteSpace=wrap;html=1;fixedSize=1;" vertex="1" parent="1">
          <mxGeometry x="160" y="380" width="160" height="30" as="geometry" />
        </mxCell>
        <mxCell id="77FX7k-zkkTYW5ezyQ91-16" value="" style="edgeStyle=orthogonalEdgeStyle;rounded=0;orthogonalLoop=1;jettySize=auto;html=1;" edge="1" parent="1">
          <mxGeometry relative="1" as="geometry">
            <mxPoint x="240" y="430" as="targetPoint" />
            <mxPoint x="240" y="410" as="sourcePoint" />
          </mxGeometry>
        </mxCell>
        <mxCell id="77FX7k-zkkTYW5ezyQ91-17" style="edgeStyle=orthogonalEdgeStyle;rounded=0;orthogonalLoop=1;jettySize=auto;html=1;exitX=0.5;exitY=1;exitDx=0;exitDy=0;" edge="1" parent="1" source="77FX7k-zkkTYW5ezyQ91-18">
          <mxGeometry relative="1" as="geometry">
            <mxPoint x="239.85714285714278" y="480" as="targetPoint" />
          </mxGeometry>
        </mxCell>
        <mxCell id="77FX7k-zkkTYW5ezyQ91-18" value="print(arr, n);" style="rounded=0;whiteSpace=wrap;html=1;" vertex="1" parent="1">
          <mxGeometry x="180" y="430" width="120" height="30" as="geometry" />
        </mxCell>
        <mxCell id="77FX7k-zkkTYW5ezyQ91-19" value="return 0;" style="ellipse;whiteSpace=wrap;html=1;" vertex="1" parent="1">
          <mxGeometry x="180" y="480" width="120" height="40" as="geometry" />
        </mxCell>
        <mxCell id="77FX7k-zkkTYW5ezyQ91-20" value="}" style="text;html=1;align=center;verticalAlign=middle;resizable=0;points=[];autosize=1;strokeColor=none;fillColor=none;" vertex="1" parent="1">
          <mxGeometry x="270" y="510" width="30" height="30" as="geometry" />
        </mxCell>
        <mxCell id="77FX7k-zkkTYW5ezyQ91-21" value="{" style="text;html=1;align=center;verticalAlign=middle;resizable=0;points=[];autosize=1;strokeColor=none;fillColor=none;" vertex="1" parent="1">
          <mxGeometry x="155" y="148" width="30" height="30" as="geometry" />
        </mxCell>
        <mxCell id="77FX7k-zkkTYW5ezyQ91-22" value="void mergeSort(int arr[], int left, int right)&amp;nbsp;" style="shape=process;whiteSpace=wrap;html=1;backgroundOutline=1;" vertex="1" parent="1">
          <mxGeometry x="690" y="65" width="260" height="30" as="geometry" />
        </mxCell>
        <mxCell id="77FX7k-zkkTYW5ezyQ91-23" value="" style="edgeStyle=orthogonalEdgeStyle;rounded=0;orthogonalLoop=1;jettySize=auto;html=1;" edge="1" parent="1">
          <mxGeometry relative="1" as="geometry">
            <mxPoint x="823.702857142857" y="95.00000000000011" as="sourcePoint" />
            <mxPoint x="823.9428571428571" y="115.00000000000011" as="targetPoint" />
          </mxGeometry>
        </mxCell>
        <mxCell id="77FX7k-zkkTYW5ezyQ91-24" value="" style="edgeStyle=orthogonalEdgeStyle;rounded=0;orthogonalLoop=1;jettySize=auto;html=1;" edge="1" parent="1">
          <mxGeometry relative="1" as="geometry">
            <mxPoint x="823.9428571428571" y="95.00000000000011" as="sourcePoint" />
            <mxPoint x="823.9428571428571" y="115.00000000000011" as="targetPoint" />
          </mxGeometry>
        </mxCell>
        <mxCell id="77FX7k-zkkTYW5ezyQ91-25" style="edgeStyle=orthogonalEdgeStyle;rounded=0;orthogonalLoop=1;jettySize=auto;html=1;exitX=0;exitY=0.5;exitDx=0;exitDy=0;entryX=0.5;entryY=0;entryDx=0;entryDy=0;" edge="1" source="77FX7k-zkkTYW5ezyQ91-27" parent="1" target="77FX7k-zkkTYW5ezyQ91-32">
          <mxGeometry relative="1" as="geometry">
            <mxPoint x="680" y="205.0000000000001" as="targetPoint" />
          </mxGeometry>
        </mxCell>
        <mxCell id="77FX7k-zkkTYW5ezyQ91-51" style="edgeStyle=orthogonalEdgeStyle;rounded=0;orthogonalLoop=1;jettySize=auto;html=1;exitX=1;exitY=0.5;exitDx=0;exitDy=0;" edge="1" parent="1" source="77FX7k-zkkTYW5ezyQ91-27">
          <mxGeometry relative="1" as="geometry">
            <mxPoint x="839.9999999999998" y="600" as="targetPoint" />
            <Array as="points">
              <mxPoint x="950" y="155" />
              <mxPoint x="950" y="600" />
            </Array>
          </mxGeometry>
        </mxCell>
        <mxCell id="77FX7k-zkkTYW5ezyQ91-27" value="if (left &amp;lt; right)&amp;nbsp;" style="rhombus;whiteSpace=wrap;html=1;" vertex="1" parent="1">
          <mxGeometry x="760" y="115.00000000000011" width="130" height="80" as="geometry" />
        </mxCell>
        <mxCell id="77FX7k-zkkTYW5ezyQ91-33" style="edgeStyle=orthogonalEdgeStyle;rounded=0;orthogonalLoop=1;jettySize=auto;html=1;exitX=0.5;exitY=1;exitDx=0;exitDy=0;" edge="1" parent="1" source="77FX7k-zkkTYW5ezyQ91-32">
          <mxGeometry relative="1" as="geometry">
            <mxPoint x="679.8571428571429" y="250" as="targetPoint" />
          </mxGeometry>
        </mxCell>
        <mxCell id="77FX7k-zkkTYW5ezyQ91-32" value="cout &amp;lt;&amp;lt; &quot;Разделение: &quot;;" style="shape=parallelogram;perimeter=parallelogramPerimeter;whiteSpace=wrap;html=1;fixedSize=1;" vertex="1" parent="1">
          <mxGeometry x="600" y="200" width="160" height="30" as="geometry" />
        </mxCell>
        <mxCell id="77FX7k-zkkTYW5ezyQ91-34" value="&amp;nbsp;print(arr + left, right - left + 1);" style="rounded=0;whiteSpace=wrap;html=1;" vertex="1" parent="1">
          <mxGeometry x="610" y="250" width="120" height="30" as="geometry" />
        </mxCell>
        <mxCell id="77FX7k-zkkTYW5ezyQ91-35" style="edgeStyle=orthogonalEdgeStyle;rounded=0;orthogonalLoop=1;jettySize=auto;html=1;exitX=0.5;exitY=1;exitDx=0;exitDy=0;" edge="1" parent="1">
          <mxGeometry relative="1" as="geometry">
            <mxPoint x="679.8571428571429" y="300" as="targetPoint" />
            <mxPoint x="680" y="280" as="sourcePoint" />
          </mxGeometry>
        </mxCell>
        <mxCell id="77FX7k-zkkTYW5ezyQ91-36" value="int mid = left + (right - left) / 2;" style="rounded=0;whiteSpace=wrap;html=1;" vertex="1" parent="1">
          <mxGeometry x="610" y="300" width="120" height="30" as="geometry" />
        </mxCell>
        <mxCell id="77FX7k-zkkTYW5ezyQ91-37" style="edgeStyle=orthogonalEdgeStyle;rounded=0;orthogonalLoop=1;jettySize=auto;html=1;exitX=0.5;exitY=1;exitDx=0;exitDy=0;" edge="1" parent="1">
          <mxGeometry relative="1" as="geometry">
            <mxPoint x="679.8571428571429" y="350" as="targetPoint" />
            <mxPoint x="680" y="330" as="sourcePoint" />
          </mxGeometry>
        </mxCell>
        <mxCell id="77FX7k-zkkTYW5ezyQ91-38" value="&amp;nbsp;mergeSort(arr, left, mid);" style="rounded=0;whiteSpace=wrap;html=1;" vertex="1" parent="1">
          <mxGeometry x="610" y="350" width="120" height="30" as="geometry" />
        </mxCell>
        <mxCell id="77FX7k-zkkTYW5ezyQ91-39" style="edgeStyle=orthogonalEdgeStyle;rounded=0;orthogonalLoop=1;jettySize=auto;html=1;exitX=0.5;exitY=1;exitDx=0;exitDy=0;" edge="1" parent="1">
          <mxGeometry relative="1" as="geometry">
            <mxPoint x="679.8571428571429" y="400" as="targetPoint" />
            <mxPoint x="680" y="380" as="sourcePoint" />
          </mxGeometry>
        </mxCell>
        <mxCell id="77FX7k-zkkTYW5ezyQ91-41" style="edgeStyle=orthogonalEdgeStyle;rounded=0;orthogonalLoop=1;jettySize=auto;html=1;exitX=0.5;exitY=1;exitDx=0;exitDy=0;" edge="1" parent="1" source="77FX7k-zkkTYW5ezyQ91-40">
          <mxGeometry relative="1" as="geometry">
            <mxPoint x="670.1428571428571" y="450" as="targetPoint" />
          </mxGeometry>
        </mxCell>
        <mxCell id="77FX7k-zkkTYW5ezyQ91-40" value="&amp;nbsp;mergeSort(arr, mid + 1, right);" style="rounded=0;whiteSpace=wrap;html=1;" vertex="1" parent="1">
          <mxGeometry x="610" y="400" width="120" height="30" as="geometry" />
        </mxCell>
        <mxCell id="77FX7k-zkkTYW5ezyQ91-45" style="edgeStyle=orthogonalEdgeStyle;rounded=0;orthogonalLoop=1;jettySize=auto;html=1;exitX=0.5;exitY=1;exitDx=0;exitDy=0;" edge="1" parent="1" source="77FX7k-zkkTYW5ezyQ91-46">
          <mxGeometry relative="1" as="geometry">
            <mxPoint x="670.1428571428571" y="500" as="targetPoint" />
          </mxGeometry>
        </mxCell>
        <mxCell id="77FX7k-zkkTYW5ezyQ91-46" value="merge(arr, left, mid, right);" style="rounded=0;whiteSpace=wrap;html=1;" vertex="1" parent="1">
          <mxGeometry x="610" y="450" width="120" height="30" as="geometry" />
        </mxCell>
        <mxCell id="77FX7k-zkkTYW5ezyQ91-48" style="edgeStyle=orthogonalEdgeStyle;rounded=0;orthogonalLoop=1;jettySize=auto;html=1;exitX=0.5;exitY=1;exitDx=0;exitDy=0;" edge="1" parent="1" source="77FX7k-zkkTYW5ezyQ91-47">
          <mxGeometry relative="1" as="geometry">
            <mxPoint x="670.1428571428571" y="550" as="targetPoint" />
          </mxGeometry>
        </mxCell>
        <mxCell id="77FX7k-zkkTYW5ezyQ91-47" value="cout &amp;lt;&amp;lt; &quot;Слияние: &quot;;" style="shape=parallelogram;perimeter=parallelogramPerimeter;whiteSpace=wrap;html=1;fixedSize=1;" vertex="1" parent="1">
          <mxGeometry x="590" y="500" width="160" height="30" as="geometry" />
        </mxCell>
        <mxCell id="77FX7k-zkkTYW5ezyQ91-50" style="edgeStyle=orthogonalEdgeStyle;rounded=0;orthogonalLoop=1;jettySize=auto;html=1;exitX=0.5;exitY=1;exitDx=0;exitDy=0;" edge="1" parent="1" source="77FX7k-zkkTYW5ezyQ91-49">
          <mxGeometry relative="1" as="geometry">
            <mxPoint x="840" y="600" as="targetPoint" />
            <Array as="points">
              <mxPoint x="670" y="600" />
            </Array>
          </mxGeometry>
        </mxCell>
        <mxCell id="77FX7k-zkkTYW5ezyQ91-49" value="print(arr + left, right - left + 1);" style="rounded=0;whiteSpace=wrap;html=1;" vertex="1" parent="1">
          <mxGeometry x="610" y="550" width="120" height="30" as="geometry" />
        </mxCell>
        <mxCell id="77FX7k-zkkTYW5ezyQ91-52" value="1" style="text;html=1;align=center;verticalAlign=middle;resizable=0;points=[];autosize=1;strokeColor=none;fillColor=none;" vertex="1" parent="1">
          <mxGeometry x="735" y="118" width="30" height="30" as="geometry" />
        </mxCell>
        <mxCell id="77FX7k-zkkTYW5ezyQ91-53" value="0" style="text;html=1;align=center;verticalAlign=middle;resizable=0;points=[];autosize=1;strokeColor=none;fillColor=none;" vertex="1" parent="1">
          <mxGeometry x="875" y="118" width="30" height="30" as="geometry" />
        </mxCell>
        <mxCell id="77FX7k-zkkTYW5ezyQ91-54" value="" style="endArrow=classic;html=1;rounded=0;" edge="1" parent="1">
          <mxGeometry width="50" height="50" relative="1" as="geometry">
            <mxPoint x="840" y="600" as="sourcePoint" />
            <mxPoint x="840" y="620" as="targetPoint" />
          </mxGeometry>
        </mxCell>
        <mxCell id="77FX7k-zkkTYW5ezyQ91-55" value="return;" style="ellipse;whiteSpace=wrap;html=1;" vertex="1" parent="1">
          <mxGeometry x="780" y="620" width="120" height="40" as="geometry" />
        </mxCell>
        <mxCell id="77FX7k-zkkTYW5ezyQ91-56" value="}" style="text;html=1;align=center;verticalAlign=middle;resizable=0;points=[];autosize=1;strokeColor=none;fillColor=none;" vertex="1" parent="1">
          <mxGeometry x="875" y="660" width="30" height="30" as="geometry" />
        </mxCell>
        <mxCell id="77FX7k-zkkTYW5ezyQ91-57" value="{" style="text;html=1;align=center;verticalAlign=middle;resizable=0;points=[];autosize=1;strokeColor=none;fillColor=none;" vertex="1" parent="1">
          <mxGeometry x="765" y="88" width="30" height="30" as="geometry" />
        </mxCell>
        <mxCell id="77FX7k-zkkTYW5ezyQ91-59" style="edgeStyle=orthogonalEdgeStyle;rounded=0;orthogonalLoop=1;jettySize=auto;html=1;exitX=0.5;exitY=1;exitDx=0;exitDy=0;" edge="1" parent="1" source="77FX7k-zkkTYW5ezyQ91-58">
          <mxGeometry relative="1" as="geometry">
            <mxPoint x="1359.8571428571427" y="110" as="targetPoint" />
          </mxGeometry>
        </mxCell>
        <mxCell id="77FX7k-zkkTYW5ezyQ91-58" value="void merge(int arr[], int left, int mid, int right)&amp;nbsp;" style="shape=process;whiteSpace=wrap;html=1;backgroundOutline=1;" vertex="1" parent="1">
          <mxGeometry x="1230" y="60" width="260" height="30" as="geometry" />
        </mxCell>
        <mxCell id="77FX7k-zkkTYW5ezyQ91-60" value="int n1 = mid - left + 1;&amp;nbsp;" style="rounded=0;whiteSpace=wrap;html=1;" vertex="1" parent="1">
          <mxGeometry x="1300" y="110" width="120" height="30" as="geometry" />
        </mxCell>
        <mxCell id="77FX7k-zkkTYW5ezyQ91-61" style="edgeStyle=orthogonalEdgeStyle;rounded=0;orthogonalLoop=1;jettySize=auto;html=1;exitX=0.5;exitY=1;exitDx=0;exitDy=0;" edge="1" parent="1">
          <mxGeometry relative="1" as="geometry">
            <mxPoint x="1359.8571428571427" y="158" as="targetPoint" />
            <mxPoint x="1360" y="138" as="sourcePoint" />
          </mxGeometry>
        </mxCell>
        <mxCell id="77FX7k-zkkTYW5ezyQ91-62" value="int n2 = right - mid;&amp;nbsp;" style="rounded=0;whiteSpace=wrap;html=1;" vertex="1" parent="1">
          <mxGeometry x="1300" y="158" width="120" height="30" as="geometry" />
        </mxCell>
        <mxCell id="77FX7k-zkkTYW5ezyQ91-63" style="edgeStyle=orthogonalEdgeStyle;rounded=0;orthogonalLoop=1;jettySize=auto;html=1;exitX=0.5;exitY=1;exitDx=0;exitDy=0;" edge="1" parent="1">
          <mxGeometry relative="1" as="geometry">
            <mxPoint x="1359.8571428571427" y="208" as="targetPoint" />
            <mxPoint x="1360" y="188" as="sourcePoint" />
          </mxGeometry>
        </mxCell>
        <mxCell id="77FX7k-zkkTYW5ezyQ91-64" value="int* leftA = new int[n1];" style="rounded=0;whiteSpace=wrap;html=1;" vertex="1" parent="1">
          <mxGeometry x="1300" y="208" width="120" height="30" as="geometry" />
        </mxCell>
        <mxCell id="77FX7k-zkkTYW5ezyQ91-65" style="edgeStyle=orthogonalEdgeStyle;rounded=0;orthogonalLoop=1;jettySize=auto;html=1;exitX=0.5;exitY=1;exitDx=0;exitDy=0;" edge="1" parent="1">
          <mxGeometry relative="1" as="geometry">
            <mxPoint x="1359.8571428571427" y="256" as="targetPoint" />
            <mxPoint x="1360" y="236" as="sourcePoint" />
          </mxGeometry>
        </mxCell>
        <mxCell id="77FX7k-zkkTYW5ezyQ91-66" value="int* rightA = new int[n2];" style="rounded=0;whiteSpace=wrap;html=1;" vertex="1" parent="1">
          <mxGeometry x="1300" y="256" width="120" height="30" as="geometry" />
        </mxCell>
        <mxCell id="77FX7k-zkkTYW5ezyQ91-67" value="" style="edgeStyle=orthogonalEdgeStyle;rounded=0;orthogonalLoop=1;jettySize=auto;html=1;" edge="1" parent="1">
          <mxGeometry relative="1" as="geometry">
            <mxPoint x="1364.9714285714285" y="286" as="sourcePoint" />
            <mxPoint x="1364.9714285714285" y="306" as="targetPoint" />
          </mxGeometry>
        </mxCell>
        <mxCell id="77FX7k-zkkTYW5ezyQ91-68" style="edgeStyle=orthogonalEdgeStyle;rounded=0;orthogonalLoop=1;jettySize=auto;html=1;exitX=1;exitY=0.5;exitDx=0;exitDy=0;entryX=0.522;entryY=-0.017;entryDx=0;entryDy=0;entryPerimeter=0;" edge="1" source="77FX7k-zkkTYW5ezyQ91-69" parent="1" target="77FX7k-zkkTYW5ezyQ91-76">
          <mxGeometry relative="1" as="geometry">
            <mxPoint x="1614.9714285714285" y="416" as="targetPoint" />
          </mxGeometry>
        </mxCell>
        <mxCell id="77FX7k-zkkTYW5ezyQ91-69" value="" style="verticalLabelPosition=bottom;verticalAlign=top;html=1;shape=hexagon;perimeter=hexagonPerimeter2;arcSize=6;size=0.11951219512195121;" vertex="1" parent="1">
          <mxGeometry x="1260.4714285714285" y="306" width="205" height="50" as="geometry" />
        </mxCell>
        <mxCell id="77FX7k-zkkTYW5ezyQ91-70" value="" style="edgeStyle=orthogonalEdgeStyle;rounded=0;orthogonalLoop=1;jettySize=auto;html=1;" edge="1" parent="1">
          <mxGeometry relative="1" as="geometry">
            <mxPoint x="1364.7314285714285" y="356" as="sourcePoint" />
            <mxPoint x="1364.9714285714285" y="376" as="targetPoint" />
          </mxGeometry>
        </mxCell>
        <mxCell id="77FX7k-zkkTYW5ezyQ91-71" value="for (int i = 0; i &amp;lt; n1; i++)" style="text;html=1;align=center;verticalAlign=middle;whiteSpace=wrap;rounded=0;" vertex="1" parent="1">
          <mxGeometry x="1304.9714285714285" y="316" width="120" height="30" as="geometry" />
        </mxCell>
        <mxCell id="77FX7k-zkkTYW5ezyQ91-72" value="" style="edgeStyle=orthogonalEdgeStyle;rounded=0;orthogonalLoop=1;jettySize=auto;html=1;entryX=0;entryY=0.5;entryDx=0;entryDy=0;" edge="1" target="77FX7k-zkkTYW5ezyQ91-69" parent="1">
          <mxGeometry relative="1" as="geometry">
            <mxPoint x="1364.9714285714285" y="406" as="sourcePoint" />
            <mxPoint x="1244.9714285714285" y="376" as="targetPoint" />
            <Array as="points">
              <mxPoint x="1364.9714285714285" y="456" />
              <mxPoint x="1240.9714285714285" y="456" />
              <mxPoint x="1240.9714285714285" y="331" />
            </Array>
          </mxGeometry>
        </mxCell>
        <mxCell id="77FX7k-zkkTYW5ezyQ91-73" value="leftA[i] = arr[left + i]" style="rounded=0;whiteSpace=wrap;html=1;" vertex="1" parent="1">
          <mxGeometry x="1304.9714285714285" y="376" width="120" height="30" as="geometry" />
        </mxCell>
        <mxCell id="77FX7k-zkkTYW5ezyQ91-75" style="edgeStyle=orthogonalEdgeStyle;rounded=0;orthogonalLoop=1;jettySize=auto;html=1;exitX=1;exitY=0.5;exitDx=0;exitDy=0;" edge="1" source="77FX7k-zkkTYW5ezyQ91-76" parent="1">
          <mxGeometry relative="1" as="geometry">
            <mxPoint x="1864.0014285714285" y="530" as="targetPoint" />
          </mxGeometry>
        </mxCell>
        <mxCell id="77FX7k-zkkTYW5ezyQ91-76" value="" style="verticalLabelPosition=bottom;verticalAlign=top;html=1;shape=hexagon;perimeter=hexagonPerimeter2;arcSize=6;size=0.11951219512195121;" vertex="1" parent="1">
          <mxGeometry x="1509.5014285714285" y="420" width="205" height="50" as="geometry" />
        </mxCell>
        <mxCell id="77FX7k-zkkTYW5ezyQ91-77" value="" style="edgeStyle=orthogonalEdgeStyle;rounded=0;orthogonalLoop=1;jettySize=auto;html=1;" edge="1" parent="1">
          <mxGeometry relative="1" as="geometry">
            <mxPoint x="1613.7614285714285" y="470" as="sourcePoint" />
            <mxPoint x="1614.0014285714285" y="490" as="targetPoint" />
          </mxGeometry>
        </mxCell>
        <mxCell id="77FX7k-zkkTYW5ezyQ91-78" value="for (int j = 0; j &amp;lt; n2; j++)" style="text;html=1;align=center;verticalAlign=middle;whiteSpace=wrap;rounded=0;" vertex="1" parent="1">
          <mxGeometry x="1554.0014285714285" y="430" width="120" height="30" as="geometry" />
        </mxCell>
        <mxCell id="77FX7k-zkkTYW5ezyQ91-79" value="" style="edgeStyle=orthogonalEdgeStyle;rounded=0;orthogonalLoop=1;jettySize=auto;html=1;entryX=0;entryY=0.5;entryDx=0;entryDy=0;" edge="1" target="77FX7k-zkkTYW5ezyQ91-76" parent="1">
          <mxGeometry relative="1" as="geometry">
            <mxPoint x="1614.0014285714285" y="520" as="sourcePoint" />
            <mxPoint x="1494.0014285714285" y="490" as="targetPoint" />
            <Array as="points">
              <mxPoint x="1614.0014285714285" y="570" />
              <mxPoint x="1490.0014285714285" y="570" />
              <mxPoint x="1490.0014285714285" y="445" />
            </Array>
          </mxGeometry>
        </mxCell>
        <mxCell id="77FX7k-zkkTYW5ezyQ91-80" value="&lt;div&gt;rightA[j] = arr[mid + 1 + j];&lt;br&gt;&lt;/div&gt;" style="rounded=0;whiteSpace=wrap;html=1;" vertex="1" parent="1">
          <mxGeometry x="1554.0014285714285" y="490" width="120" height="30" as="geometry" />
        </mxCell>
        <mxCell id="77FX7k-zkkTYW5ezyQ91-82" style="edgeStyle=orthogonalEdgeStyle;rounded=0;orthogonalLoop=1;jettySize=auto;html=1;exitX=0.5;exitY=1;exitDx=0;exitDy=0;" edge="1" parent="1" source="77FX7k-zkkTYW5ezyQ91-81">
          <mxGeometry relative="1" as="geometry">
            <mxPoint x="1859.8571428571427" y="580" as="targetPoint" />
          </mxGeometry>
        </mxCell>
        <mxCell id="77FX7k-zkkTYW5ezyQ91-81" value="&lt;div&gt;int i = 0, j = 0, k = left;&lt;br&gt;&lt;/div&gt;" style="rounded=0;whiteSpace=wrap;html=1;" vertex="1" parent="1">
          <mxGeometry x="1800.0014285714285" y="530" width="120" height="30" as="geometry" />
        </mxCell>
        <mxCell id="77FX7k-zkkTYW5ezyQ91-103" style="edgeStyle=orthogonalEdgeStyle;rounded=0;orthogonalLoop=1;jettySize=auto;html=1;exitX=1;exitY=0.5;exitDx=0;exitDy=0;entryX=0.5;entryY=0;entryDx=0;entryDy=0;" edge="1" parent="1" source="77FX7k-zkkTYW5ezyQ91-83" target="77FX7k-zkkTYW5ezyQ91-106">
          <mxGeometry relative="1" as="geometry">
            <mxPoint x="2250" y="670" as="targetPoint" />
          </mxGeometry>
        </mxCell>
        <mxCell id="77FX7k-zkkTYW5ezyQ91-83" value="&amp;nbsp;while (i &amp;lt; n1 &amp;amp;&amp;amp; j &amp;lt; n2)&amp;nbsp;" style="rhombus;whiteSpace=wrap;html=1;" vertex="1" parent="1">
          <mxGeometry x="1770" y="580" width="180" height="80" as="geometry" />
        </mxCell>
        <mxCell id="77FX7k-zkkTYW5ezyQ91-84" value="" style="edgeStyle=orthogonalEdgeStyle;rounded=0;orthogonalLoop=1;jettySize=auto;html=1;" edge="1" parent="1">
          <mxGeometry relative="1" as="geometry">
            <mxPoint x="1863.702857142857" y="660.0000000000001" as="sourcePoint" />
            <mxPoint x="1863.942857142857" y="680.0000000000001" as="targetPoint" />
          </mxGeometry>
        </mxCell>
        <mxCell id="77FX7k-zkkTYW5ezyQ91-85" value="" style="edgeStyle=orthogonalEdgeStyle;rounded=0;orthogonalLoop=1;jettySize=auto;html=1;" edge="1" parent="1">
          <mxGeometry relative="1" as="geometry">
            <mxPoint x="1863.942857142857" y="660.0000000000001" as="sourcePoint" />
            <mxPoint x="1863.942857142857" y="680.0000000000001" as="targetPoint" />
          </mxGeometry>
        </mxCell>
        <mxCell id="77FX7k-zkkTYW5ezyQ91-86" style="edgeStyle=orthogonalEdgeStyle;rounded=0;orthogonalLoop=1;jettySize=auto;html=1;exitX=0;exitY=0.5;exitDx=0;exitDy=0;" edge="1" source="77FX7k-zkkTYW5ezyQ91-88" parent="1">
          <mxGeometry relative="1" as="geometry">
            <mxPoint x="1720" y="770.0000000000001" as="targetPoint" />
          </mxGeometry>
        </mxCell>
        <mxCell id="77FX7k-zkkTYW5ezyQ91-87" style="edgeStyle=orthogonalEdgeStyle;rounded=0;orthogonalLoop=1;jettySize=auto;html=1;exitX=1;exitY=0.5;exitDx=0;exitDy=0;" edge="1" source="77FX7k-zkkTYW5ezyQ91-88" parent="1">
          <mxGeometry relative="1" as="geometry">
            <mxPoint x="2019.9999999999998" y="770.0000000000001" as="targetPoint" />
          </mxGeometry>
        </mxCell>
        <mxCell id="77FX7k-zkkTYW5ezyQ91-88" value="&amp;nbsp;if (leftA[i] &amp;lt;= rightA[j])" style="rhombus;whiteSpace=wrap;html=1;" vertex="1" parent="1">
          <mxGeometry x="1800" y="680.0000000000001" width="130" height="80" as="geometry" />
        </mxCell>
        <mxCell id="77FX7k-zkkTYW5ezyQ91-93" style="edgeStyle=orthogonalEdgeStyle;rounded=0;orthogonalLoop=1;jettySize=auto;html=1;exitX=0.5;exitY=1;exitDx=0;exitDy=0;" edge="1" parent="1" source="77FX7k-zkkTYW5ezyQ91-90">
          <mxGeometry relative="1" as="geometry">
            <mxPoint x="1719.8571428571427" y="820" as="targetPoint" />
          </mxGeometry>
        </mxCell>
        <mxCell id="77FX7k-zkkTYW5ezyQ91-90" value="&amp;nbsp;arr[k] = leftA[i];" style="rounded=0;whiteSpace=wrap;html=1;" vertex="1" parent="1">
          <mxGeometry x="1660" y="770.0000000000001" width="120" height="30" as="geometry" />
        </mxCell>
        <mxCell id="77FX7k-zkkTYW5ezyQ91-95" style="edgeStyle=orthogonalEdgeStyle;rounded=0;orthogonalLoop=1;jettySize=auto;html=1;exitX=0.5;exitY=1;exitDx=0;exitDy=0;" edge="1" parent="1" source="77FX7k-zkkTYW5ezyQ91-92">
          <mxGeometry relative="1" as="geometry">
            <mxPoint x="2019.8571428571427" y="820" as="targetPoint" />
          </mxGeometry>
        </mxCell>
        <mxCell id="77FX7k-zkkTYW5ezyQ91-92" value="&amp;nbsp;arr[k] = rightA[j];" style="rounded=0;whiteSpace=wrap;html=1;" vertex="1" parent="1">
          <mxGeometry x="1960" y="770.0000000000001" width="120" height="30" as="geometry" />
        </mxCell>
        <mxCell id="77FX7k-zkkTYW5ezyQ91-97" style="edgeStyle=orthogonalEdgeStyle;rounded=0;orthogonalLoop=1;jettySize=auto;html=1;exitX=0.5;exitY=1;exitDx=0;exitDy=0;" edge="1" parent="1" source="77FX7k-zkkTYW5ezyQ91-94">
          <mxGeometry relative="1" as="geometry">
            <mxPoint x="1870" y="880" as="targetPoint" />
            <Array as="points">
              <mxPoint x="1720" y="880" />
            </Array>
          </mxGeometry>
        </mxCell>
        <mxCell id="77FX7k-zkkTYW5ezyQ91-94" value="&amp;nbsp;i++;" style="rounded=0;whiteSpace=wrap;html=1;" vertex="1" parent="1">
          <mxGeometry x="1660" y="820.0000000000001" width="120" height="30" as="geometry" />
        </mxCell>
        <mxCell id="77FX7k-zkkTYW5ezyQ91-98" style="edgeStyle=orthogonalEdgeStyle;rounded=0;orthogonalLoop=1;jettySize=auto;html=1;exitX=0.5;exitY=1;exitDx=0;exitDy=0;" edge="1" parent="1" source="77FX7k-zkkTYW5ezyQ91-96">
          <mxGeometry relative="1" as="geometry">
            <mxPoint x="1870" y="880" as="targetPoint" />
            <Array as="points">
              <mxPoint x="2020" y="880" />
            </Array>
          </mxGeometry>
        </mxCell>
        <mxCell id="77FX7k-zkkTYW5ezyQ91-96" value="&amp;nbsp;j++;" style="rounded=0;whiteSpace=wrap;html=1;" vertex="1" parent="1">
          <mxGeometry x="1960" y="820.0000000000001" width="120" height="30" as="geometry" />
        </mxCell>
        <mxCell id="77FX7k-zkkTYW5ezyQ91-99" value="" style="endArrow=classic;html=1;rounded=0;" edge="1" parent="1">
          <mxGeometry width="50" height="50" relative="1" as="geometry">
            <mxPoint x="1870" y="880" as="sourcePoint" />
            <mxPoint x="1870" y="900" as="targetPoint" />
          </mxGeometry>
        </mxCell>
        <mxCell id="77FX7k-zkkTYW5ezyQ91-102" style="edgeStyle=orthogonalEdgeStyle;rounded=0;orthogonalLoop=1;jettySize=auto;html=1;exitX=0.5;exitY=1;exitDx=0;exitDy=0;entryX=0;entryY=0.5;entryDx=0;entryDy=0;" edge="1" parent="1" source="77FX7k-zkkTYW5ezyQ91-100" target="77FX7k-zkkTYW5ezyQ91-83">
          <mxGeometry relative="1" as="geometry">
            <Array as="points">
              <mxPoint x="1870" y="950" />
              <mxPoint x="1650" y="950" />
              <mxPoint x="1650" y="620" />
            </Array>
          </mxGeometry>
        </mxCell>
        <mxCell id="77FX7k-zkkTYW5ezyQ91-100" value="k++;" style="rounded=0;whiteSpace=wrap;html=1;" vertex="1" parent="1">
          <mxGeometry x="1810" y="900.0000000000001" width="120" height="30" as="geometry" />
        </mxCell>
        <mxCell id="77FX7k-zkkTYW5ezyQ91-131" style="edgeStyle=orthogonalEdgeStyle;rounded=0;orthogonalLoop=1;jettySize=auto;html=1;exitX=1;exitY=0.5;exitDx=0;exitDy=0;" edge="1" parent="1" source="77FX7k-zkkTYW5ezyQ91-106">
          <mxGeometry relative="1" as="geometry">
            <mxPoint x="2620" y="780" as="targetPoint" />
          </mxGeometry>
        </mxCell>
        <mxCell id="77FX7k-zkkTYW5ezyQ91-106" value="while (i &amp;lt; n1)" style="rhombus;whiteSpace=wrap;html=1;" vertex="1" parent="1">
          <mxGeometry x="2240" y="690" width="180" height="80" as="geometry" />
        </mxCell>
        <mxCell id="77FX7k-zkkTYW5ezyQ91-107" value="" style="edgeStyle=orthogonalEdgeStyle;rounded=0;orthogonalLoop=1;jettySize=auto;html=1;" edge="1" parent="1">
          <mxGeometry relative="1" as="geometry">
            <mxPoint x="2333.7028571428573" y="770.0000000000001" as="sourcePoint" />
            <mxPoint x="2333.942857142857" y="790.0000000000001" as="targetPoint" />
          </mxGeometry>
        </mxCell>
        <mxCell id="77FX7k-zkkTYW5ezyQ91-108" value="" style="edgeStyle=orthogonalEdgeStyle;rounded=0;orthogonalLoop=1;jettySize=auto;html=1;" edge="1" parent="1">
          <mxGeometry relative="1" as="geometry">
            <mxPoint x="2333.942857142857" y="770.0000000000001" as="sourcePoint" />
            <mxPoint x="2333.942857142857" y="790.0000000000001" as="targetPoint" />
          </mxGeometry>
        </mxCell>
        <mxCell id="77FX7k-zkkTYW5ezyQ91-123" value="arr[k] = leftA[i];" style="rounded=0;whiteSpace=wrap;html=1;" vertex="1" parent="1">
          <mxGeometry x="2270" y="790.0000000000001" width="120" height="30" as="geometry" />
        </mxCell>
        <mxCell id="77FX7k-zkkTYW5ezyQ91-124" value="" style="edgeStyle=orthogonalEdgeStyle;rounded=0;orthogonalLoop=1;jettySize=auto;html=1;" edge="1" parent="1">
          <mxGeometry relative="1" as="geometry">
            <mxPoint x="2333.7028571428573" y="820.0000000000001" as="sourcePoint" />
            <mxPoint x="2333.942857142857" y="840.0000000000001" as="targetPoint" />
          </mxGeometry>
        </mxCell>
        <mxCell id="77FX7k-zkkTYW5ezyQ91-125" value="" style="edgeStyle=orthogonalEdgeStyle;rounded=0;orthogonalLoop=1;jettySize=auto;html=1;" edge="1" parent="1">
          <mxGeometry relative="1" as="geometry">
            <mxPoint x="2333.942857142857" y="820.0000000000001" as="sourcePoint" />
            <mxPoint x="2333.942857142857" y="840.0000000000001" as="targetPoint" />
          </mxGeometry>
        </mxCell>
        <mxCell id="77FX7k-zkkTYW5ezyQ91-126" value="&amp;nbsp;i++;" style="rounded=0;whiteSpace=wrap;html=1;" vertex="1" parent="1">
          <mxGeometry x="2270" y="840.0000000000001" width="120" height="30" as="geometry" />
        </mxCell>
        <mxCell id="77FX7k-zkkTYW5ezyQ91-127" value="" style="edgeStyle=orthogonalEdgeStyle;rounded=0;orthogonalLoop=1;jettySize=auto;html=1;" edge="1" parent="1">
          <mxGeometry relative="1" as="geometry">
            <mxPoint x="2333.7028571428573" y="870.0000000000001" as="sourcePoint" />
            <mxPoint x="2333.942857142857" y="890.0000000000001" as="targetPoint" />
          </mxGeometry>
        </mxCell>
        <mxCell id="77FX7k-zkkTYW5ezyQ91-128" value="" style="edgeStyle=orthogonalEdgeStyle;rounded=0;orthogonalLoop=1;jettySize=auto;html=1;" edge="1" parent="1">
          <mxGeometry relative="1" as="geometry">
            <mxPoint x="2333.942857142857" y="870.0000000000001" as="sourcePoint" />
            <mxPoint x="2333.942857142857" y="890.0000000000001" as="targetPoint" />
          </mxGeometry>
        </mxCell>
        <mxCell id="77FX7k-zkkTYW5ezyQ91-130" style="edgeStyle=orthogonalEdgeStyle;rounded=0;orthogonalLoop=1;jettySize=auto;html=1;exitX=0.5;exitY=1;exitDx=0;exitDy=0;entryX=0;entryY=0.5;entryDx=0;entryDy=0;" edge="1" parent="1" source="77FX7k-zkkTYW5ezyQ91-129" target="77FX7k-zkkTYW5ezyQ91-106">
          <mxGeometry relative="1" as="geometry" />
        </mxCell>
        <mxCell id="77FX7k-zkkTYW5ezyQ91-129" value="k++;" style="rounded=0;whiteSpace=wrap;html=1;" vertex="1" parent="1">
          <mxGeometry x="2270" y="890.0000000000001" width="120" height="30" as="geometry" />
        </mxCell>
        <mxCell id="77FX7k-zkkTYW5ezyQ91-132" style="edgeStyle=orthogonalEdgeStyle;rounded=0;orthogonalLoop=1;jettySize=auto;html=1;exitX=1;exitY=0.5;exitDx=0;exitDy=0;" edge="1" parent="1" source="77FX7k-zkkTYW5ezyQ91-133">
          <mxGeometry relative="1" as="geometry">
            <mxPoint x="2910" y="870" as="targetPoint" />
          </mxGeometry>
        </mxCell>
        <mxCell id="77FX7k-zkkTYW5ezyQ91-133" value="while (j &amp;lt; n2)" style="rhombus;whiteSpace=wrap;html=1;" vertex="1" parent="1">
          <mxGeometry x="2530" y="780" width="180" height="80" as="geometry" />
        </mxCell>
        <mxCell id="77FX7k-zkkTYW5ezyQ91-134" value="" style="edgeStyle=orthogonalEdgeStyle;rounded=0;orthogonalLoop=1;jettySize=auto;html=1;" edge="1" parent="1">
          <mxGeometry relative="1" as="geometry">
            <mxPoint x="2623.7028571428573" y="860.0000000000001" as="sourcePoint" />
            <mxPoint x="2623.942857142857" y="880.0000000000001" as="targetPoint" />
          </mxGeometry>
        </mxCell>
        <mxCell id="77FX7k-zkkTYW5ezyQ91-135" value="" style="edgeStyle=orthogonalEdgeStyle;rounded=0;orthogonalLoop=1;jettySize=auto;html=1;" edge="1" parent="1">
          <mxGeometry relative="1" as="geometry">
            <mxPoint x="2623.942857142857" y="860.0000000000001" as="sourcePoint" />
            <mxPoint x="2623.942857142857" y="880.0000000000001" as="targetPoint" />
          </mxGeometry>
        </mxCell>
        <mxCell id="77FX7k-zkkTYW5ezyQ91-136" value="&amp;nbsp;arr[k] = rightA[j];" style="rounded=0;whiteSpace=wrap;html=1;" vertex="1" parent="1">
          <mxGeometry x="2560" y="880.0000000000001" width="120" height="30" as="geometry" />
        </mxCell>
        <mxCell id="77FX7k-zkkTYW5ezyQ91-137" value="" style="edgeStyle=orthogonalEdgeStyle;rounded=0;orthogonalLoop=1;jettySize=auto;html=1;" edge="1" parent="1">
          <mxGeometry relative="1" as="geometry">
            <mxPoint x="2623.7028571428573" y="910.0000000000001" as="sourcePoint" />
            <mxPoint x="2623.942857142857" y="930.0000000000001" as="targetPoint" />
          </mxGeometry>
        </mxCell>
        <mxCell id="77FX7k-zkkTYW5ezyQ91-138" value="" style="edgeStyle=orthogonalEdgeStyle;rounded=0;orthogonalLoop=1;jettySize=auto;html=1;" edge="1" parent="1">
          <mxGeometry relative="1" as="geometry">
            <mxPoint x="2623.942857142857" y="910.0000000000001" as="sourcePoint" />
            <mxPoint x="2623.942857142857" y="930.0000000000001" as="targetPoint" />
          </mxGeometry>
        </mxCell>
        <mxCell id="77FX7k-zkkTYW5ezyQ91-139" value="j++;" style="rounded=0;whiteSpace=wrap;html=1;" vertex="1" parent="1">
          <mxGeometry x="2560" y="930.0000000000001" width="120" height="30" as="geometry" />
        </mxCell>
        <mxCell id="77FX7k-zkkTYW5ezyQ91-140" value="" style="edgeStyle=orthogonalEdgeStyle;rounded=0;orthogonalLoop=1;jettySize=auto;html=1;" edge="1" parent="1">
          <mxGeometry relative="1" as="geometry">
            <mxPoint x="2623.7028571428573" y="960.0000000000001" as="sourcePoint" />
            <mxPoint x="2623.942857142857" y="980.0000000000001" as="targetPoint" />
          </mxGeometry>
        </mxCell>
        <mxCell id="77FX7k-zkkTYW5ezyQ91-141" value="" style="edgeStyle=orthogonalEdgeStyle;rounded=0;orthogonalLoop=1;jettySize=auto;html=1;" edge="1" parent="1">
          <mxGeometry relative="1" as="geometry">
            <mxPoint x="2623.942857142857" y="960.0000000000001" as="sourcePoint" />
            <mxPoint x="2623.942857142857" y="980.0000000000001" as="targetPoint" />
          </mxGeometry>
        </mxCell>
        <mxCell id="77FX7k-zkkTYW5ezyQ91-142" style="edgeStyle=orthogonalEdgeStyle;rounded=0;orthogonalLoop=1;jettySize=auto;html=1;exitX=0.5;exitY=1;exitDx=0;exitDy=0;entryX=0;entryY=0.5;entryDx=0;entryDy=0;" edge="1" parent="1" source="77FX7k-zkkTYW5ezyQ91-143" target="77FX7k-zkkTYW5ezyQ91-133">
          <mxGeometry relative="1" as="geometry" />
        </mxCell>
        <mxCell id="77FX7k-zkkTYW5ezyQ91-143" value="k++;" style="rounded=0;whiteSpace=wrap;html=1;" vertex="1" parent="1">
          <mxGeometry x="2560" y="980.0000000000001" width="120" height="30" as="geometry" />
        </mxCell>
        <mxCell id="77FX7k-zkkTYW5ezyQ91-144" value="delete[] leftA;" style="rounded=0;whiteSpace=wrap;html=1;" vertex="1" parent="1">
          <mxGeometry x="2850" y="870.0000000000001" width="120" height="30" as="geometry" />
        </mxCell>
        <mxCell id="77FX7k-zkkTYW5ezyQ91-145" value="" style="edgeStyle=orthogonalEdgeStyle;rounded=0;orthogonalLoop=1;jettySize=auto;html=1;" edge="1" parent="1">
          <mxGeometry relative="1" as="geometry">
            <mxPoint x="2913.7028571428573" y="900.0000000000001" as="sourcePoint" />
            <mxPoint x="2913.942857142857" y="920.0000000000001" as="targetPoint" />
          </mxGeometry>
        </mxCell>
        <mxCell id="77FX7k-zkkTYW5ezyQ91-146" value="" style="edgeStyle=orthogonalEdgeStyle;rounded=0;orthogonalLoop=1;jettySize=auto;html=1;" edge="1" parent="1">
          <mxGeometry relative="1" as="geometry">
            <mxPoint x="2913.942857142857" y="900.0000000000001" as="sourcePoint" />
            <mxPoint x="2913.942857142857" y="920.0000000000001" as="targetPoint" />
          </mxGeometry>
        </mxCell>
        <mxCell id="77FX7k-zkkTYW5ezyQ91-147" value="delete[] rightA;" style="rounded=0;whiteSpace=wrap;html=1;" vertex="1" parent="1">
          <mxGeometry x="2850" y="920.0000000000001" width="120" height="30" as="geometry" />
        </mxCell>
        <mxCell id="77FX7k-zkkTYW5ezyQ91-148" value="" style="edgeStyle=orthogonalEdgeStyle;rounded=0;orthogonalLoop=1;jettySize=auto;html=1;" edge="1" parent="1">
          <mxGeometry relative="1" as="geometry">
            <mxPoint x="2913.7028571428573" y="950.0000000000001" as="sourcePoint" />
            <mxPoint x="2913.942857142857" y="970.0000000000001" as="targetPoint" />
          </mxGeometry>
        </mxCell>
        <mxCell id="77FX7k-zkkTYW5ezyQ91-149" value="" style="edgeStyle=orthogonalEdgeStyle;rounded=0;orthogonalLoop=1;jettySize=auto;html=1;" edge="1" parent="1">
          <mxGeometry relative="1" as="geometry">
            <mxPoint x="2913.942857142857" y="950.0000000000001" as="sourcePoint" />
            <mxPoint x="2913.942857142857" y="970.0000000000001" as="targetPoint" />
          </mxGeometry>
        </mxCell>
        <mxCell id="77FX7k-zkkTYW5ezyQ91-150" value="return;" style="ellipse;whiteSpace=wrap;html=1;" vertex="1" parent="1">
          <mxGeometry x="2860" y="970" width="120" height="40" as="geometry" />
        </mxCell>
        <mxCell id="77FX7k-zkkTYW5ezyQ91-151" value="}" style="text;html=1;align=center;verticalAlign=middle;resizable=0;points=[];autosize=1;strokeColor=none;fillColor=none;" vertex="1" parent="1">
          <mxGeometry x="2955" y="1008" width="30" height="30" as="geometry" />
        </mxCell>
        <mxCell id="77FX7k-zkkTYW5ezyQ91-152" value="}" style="text;html=1;align=center;verticalAlign=middle;resizable=0;points=[];autosize=1;strokeColor=none;fillColor=none;" vertex="1" parent="1">
          <mxGeometry x="2650" y="1010" width="30" height="30" as="geometry" />
        </mxCell>
        <mxCell id="77FX7k-zkkTYW5ezyQ91-153" value="}" style="text;html=1;align=center;verticalAlign=middle;resizable=0;points=[];autosize=1;strokeColor=none;fillColor=none;" vertex="1" parent="1">
          <mxGeometry x="2340" y="920" width="30" height="30" as="geometry" />
        </mxCell>
        <mxCell id="77FX7k-zkkTYW5ezyQ91-154" value="}" style="text;html=1;align=center;verticalAlign=middle;resizable=0;points=[];autosize=1;strokeColor=none;fillColor=none;" vertex="1" parent="1">
          <mxGeometry x="1870" y="940" width="30" height="30" as="geometry" />
        </mxCell>
        <mxCell id="77FX7k-zkkTYW5ezyQ91-155" value="}" style="text;html=1;align=center;verticalAlign=middle;resizable=0;points=[];autosize=1;strokeColor=none;fillColor=none;" vertex="1" parent="1">
          <mxGeometry x="1880" y="950" width="30" height="30" as="geometry" />
        </mxCell>
        <mxCell id="77FX7k-zkkTYW5ezyQ91-157" value="{" style="text;html=1;align=center;verticalAlign=middle;resizable=0;points=[];autosize=1;strokeColor=none;fillColor=none;" vertex="1" parent="1">
          <mxGeometry x="1255" y="88" width="30" height="30" as="geometry" />
        </mxCell>
        <mxCell id="77FX7k-zkkTYW5ezyQ91-158" value="{" style="text;html=1;align=center;verticalAlign=middle;resizable=0;points=[];autosize=1;strokeColor=none;fillColor=none;" vertex="1" parent="1">
          <mxGeometry x="1790" y="650" width="30" height="30" as="geometry" />
        </mxCell>
        <mxCell id="77FX7k-zkkTYW5ezyQ91-160" value="{" style="text;html=1;align=center;verticalAlign=middle;resizable=0;points=[];autosize=1;strokeColor=none;fillColor=none;" vertex="1" parent="1">
          <mxGeometry x="2260" y="760" width="30" height="30" as="geometry" />
        </mxCell>
        <mxCell id="77FX7k-zkkTYW5ezyQ91-161" value="{" style="text;html=1;align=center;verticalAlign=middle;resizable=0;points=[];autosize=1;strokeColor=none;fillColor=none;" vertex="1" parent="1">
          <mxGeometry x="2560" y="840" width="30" height="30" as="geometry" />
        </mxCell>
      </root>
    </mxGraphModel>
  </diagram>
</mxfile>
